<svg xmlns="http://www.w3.org/2000/svg" width="335" height="210" viewBox="0 0 335 210">
  <g id="Group_1108" data-name="Group 1108" transform="translate(0 0)">
    <path id="Path_2934" data-name="Path 2934" d="M826.461,618.742l.907-.018a206.1,206.1,0,0,0-3.218-29.744c-3.921-21.036-10.44-34.852-19.376-41.063l-.521.734C825.128,563.16,826.45,618.188,826.461,618.742Z" transform="translate(-549.092 -409.042)" fill="#2f2e41"/>
    <path id="Path_2935" data-name="Path 2935" d="M816.768,667.3l.907-.018c-.019-.994-.586-24.417-9.9-30.891l-.521.734C816.192,643.343,816.764,667.065,816.768,667.3Z" transform="translate(-550.732 -457.819)" fill="#2f2e41"/>
    <ellipse id="Ellipse_31" data-name="Ellipse 31" cx="4.533" cy="4.487" rx="4.533" ry="4.487" transform="translate(245.469 130.717)" fill="#00b1a1"/>
    <ellipse id="Ellipse_32" data-name="Ellipse 32" cx="4.533" cy="4.487" rx="4.533" ry="4.487" transform="translate(247.714 169.307)" fill="#00b1a1"/>
    <path id="Path_2936" data-name="Path 2936" d="M832.67,544.3a19.753,19.753,0,0,0,1.369,10.2A18.022,18.022,0,0,0,837.124,535,19.86,19.86,0,0,0,832.67,544.3Z" transform="translate(-564.521 -401.921)" fill="#2f2e41"/>
    <path id="Path_2937" data-name="Path 2937" d="M789.995,576.974a20.335,20.335,0,0,0,10.389.444,20.115,20.115,0,0,0-8.477-5.962,20.335,20.335,0,0,0-10.389-.444A20.114,20.114,0,0,0,789.995,576.974Z" transform="translate(-536.663 -421.511)" fill="#2f2e41"/>
    <path id="Path_2938" data-name="Path 2938" d="M792.682,655.447a14.252,14.252,0,0,0,7.282.311,12.936,12.936,0,0,0-13.224-4.49A14.111,14.111,0,0,0,792.682,655.447Z" transform="translate(-539.519 -465.809)" fill="#2f2e41"/>
    <path id="Path_2939" data-name="Path 2939" d="M499.111,352.937l-29.227-15.044s-9.815-10.7-15.978-15.531-8.061-1.282-8.061-1.282l-2.591,4.275,6.262,8.621,16.914,14.178,30.222,11.718a4.82,4.82,0,0,0,6.308,1.732,4.722,4.722,0,0,0,2.168-6.115,4.81,4.81,0,0,0-6.018-2.551Z" transform="translate(-351.74 -283.297)" fill="#9f616a"/>
    <path id="Path_2940" data-name="Path 2940" d="M369.466,350.186l-1.73-10.479-4.886-1.209s-3.878-1.182-4.784,6.549-.2,22.166-.2,22.166l-9.92,31.094a4.736,4.736,0,0,0-2.452,6.031,4.817,4.817,0,0,0,5.92,2.815,4.748,4.748,0,0,0,3.223-5.665l13-29.439Z" transform="translate(-298.115 -293.557)" fill="#9f616a"/>
    <path id="Path_2941" data-name="Path 2941" d="M246.543,423.925h6.393l3.042-24.41h-9.436Z" transform="translate(-134.781 -220.246)" fill="#9f616a"/>
    <path id="Path_2942" data-name="Path 2942" d="M484.324,687.732h12.591a7.984,7.984,0,0,1,8.024,7.942v.258H484.324Z" transform="translate(-374.192 -486.119)" fill="#2f2e41"/>
    <path id="Path_2943" data-name="Path 2943" d="M92.715,423.925h6.394l3.041-24.41H92.714Z" transform="translate(-50.686 -220.246)" fill="#9f616a"/>
    <path id="Path_2944" data-name="Path 2944" d="M330.495,687.732h12.591a7.984,7.984,0,0,1,8.024,7.942v.259H330.5Z" transform="translate(-290.096 -486.119)" fill="#2f2e41"/>
    <path id="Path_2945" data-name="Path 2945" d="M356.8,316.287l-10.6,8.961,8.7,27.261,1.964,6.087s-11.99,10.943-19.409,41.512S317.9,471.295,317.9,471.295l25.618,7.259,20.842-69.15,24.515,54.25,2.83,16.046,21.816-6.367-5.146-40.242-25.731-69.659,2.673-18.465s4.014-9.217-2.959-18.975l-2.187-9.169-7.835-1.91Z" transform="translate(-283.212 -280.59)" fill="#2f2e41"/>
    <path id="Path_2946" data-name="Path 2946" d="M405.324,269.248h-28.67a2.216,2.216,0,0,1-2.224-2.2V254.814a16.56,16.56,0,0,1,33.119,0v12.232a2.216,2.216,0,0,1-2.224,2.2Z" transform="translate(-314.114 -238.423)" fill="#2f2e41"/>
    <path id="Path_2963" data-name="Path 2963" d="M12.046.052a12.205,12.205,0,0,1,12.1,12.164A11.955,11.955,0,0,1,12.15,24.277,12.205,12.205,0,0,1,.052,12.112,11.955,11.955,0,0,1,12.046.052Z" transform="translate(63.8 23.305) rotate(-61.337)" fill="#9f616a"/>
    <path id="Path_2947" data-name="Path 2947" d="M421.555,261.447H404.024l-.18-2.491-.9,2.491h-2.7l-.356-4.938-1.781,4.938h-5.223V261.2a13.048,13.048,0,0,1,13.1-12.966h2.472a13.048,13.048,0,0,1,13.1,12.966Z" transform="translate(-324.204 -243.833)" fill="#2f2e41"/>
    <path id="Path_2948" data-name="Path 2948" d="M401.185,283.612a2.3,2.3,0,0,1-.394-.034l-12.837-2.242v-21h14.131l-.35.4c-4.868,5.619-1.2,14.731,1.419,19.662a2.151,2.151,0,0,1-.174,2.3A2.223,2.223,0,0,1,401.185,283.612Z" transform="translate(-321.509 -250.503)" fill="#2f2e41"/>
    <path id="Path_2949" data-name="Path 2949" d="M474.46,464.81l-112.5,39.374a11.166,11.166,0,0,1-14.2-6.711l-19.327-54.109a11,11,0,0,1,6.78-14.052l112.5-39.373a11.166,11.166,0,0,1,14.2,6.711l19.327,54.109A11,11,0,0,1,474.46,464.81Z" transform="translate(-288.621 -321.604)" fill="#00b1a1"/>
    <path id="Path_2950" data-name="Path 2950" d="M505.773,526.253l.1.286a10.488,10.488,0,0,1-6.477,13.418l-113.067,39.57a10.651,10.651,0,0,1-13.555-6.408l-.1-.286Z" transform="translate(-313.156 -397.099)" fill="#f2f2f2" opacity="0.3"/>
    <path id="Path_2951" data-name="Path 2951" d="M363.11,498.61c-7.457,4.857-17.015,1.2-20.358-4.123l.533-.3C349.635,490.271,359.063,492.453,363.11,498.61Z" transform="translate(-296.797 -378.339)" fill="#f5f5f5"/>
    <path id="Path_2952" data-name="Path 2952" d="M579.1,503.572a6.16,6.16,0,0,1-4.885-.087c-3.2-1.575-4.7-6.244-5.911-10-.351-1.091-.683-2.122-1.021-2.965l0-.013a6.7,6.7,0,0,1,4.113-8.531l15.133-5.3a6.156,6.156,0,0,1,4.88.087c3.2,1.573,4.7,6.24,5.913,9.99.352,1.094.685,2.127,1.024,2.971a6.705,6.705,0,0,1-4.112,8.545ZM567.91,490.285c.345.863.68,1.9,1.034,3,1.169,3.632,2.623,8.151,5.569,9.6a5.439,5.439,0,0,0,4.361.056L594,497.648a6.036,6.036,0,0,0,3.706-7.683c-.343-.853-.679-1.9-1.035-3-1.17-3.63-2.625-8.148-5.57-9.6a5.435,5.435,0,0,0-4.355-.055l-15.132,5.3A6.034,6.034,0,0,0,567.91,490.285Z" transform="translate(-419.334 -369.52)" fill="#3f3d56"/>
    <path id="Path_2953" data-name="Path 2953" d="M359.1,499.914a15.8,15.8,0,0,1-17.76-5.731l-.185-.295.832-.468c6.444-3.973,16.107-1.819,20.279,4.524l.183.278-.28.182a14.213,14.213,0,0,1-3.069,1.509Zm-17-5.792a14.677,14.677,0,0,0,8.873,5.59,14.175,14.175,0,0,0,10.535-1.683c-4.08-5.842-13.12-7.78-19.173-4.039Z" transform="translate(-295.925 -377.894)" fill="#3f3d56"/>
    <path id="Path_2954" data-name="Path 2954" d="M379.714,573.4a5.64,5.64,0,0,1-5.689-.935,6.888,6.888,0,0,1-2.29-6.4,5.579,5.579,0,0,1,3.943-4.309l20.163-7.057a5.67,5.67,0,0,1,5.8.9,6.888,6.888,0,0,1,2.287,6.4,5.6,5.6,0,0,1-3.944,4.3l-20.163,7.057Zm-3.91-10.985a4.923,4.923,0,0,0-3.406,3.771,6.205,6.205,0,0,0,2.063,5.769,5,5,0,0,0,5.13.779l20.173-7.06a4.937,4.937,0,0,0,3.5-3.8,6.2,6.2,0,0,0-2.06-5.769,5.022,5.022,0,0,0-5.134-.785L375.9,562.385l-.093.032Z" transform="translate(-312.585 -412.545)" fill="#3f3d56"/>
    <path id="Path_2955" data-name="Path 2955" d="M583.733,497.705l-6.356,2.224a1.69,1.69,0,0,1-2.151-1.017,1.664,1.664,0,0,1,1.027-2.129l6.356-2.224a1.69,1.69,0,0,1,2.151,1.017A1.664,1.664,0,0,1,583.733,497.705Z" transform="translate(-423.834 -379.574)" fill="#f5f5f5"/>
    <path id="Path_2956" data-name="Path 2956" d="M587.7,508.923l-6.356,2.225a1.69,1.69,0,0,1-2.151-1.017A1.664,1.664,0,0,1,580.219,508l6.356-2.224a1.69,1.69,0,0,1,2.151,1.017A1.664,1.664,0,0,1,587.7,508.923Z" transform="translate(-426.002 -385.758)" fill="#f5f5f5"/>
    <path id="Path_2957" data-name="Path 2957" d="M591.665,520.14l-6.356,2.225a1.69,1.69,0,0,1-2.151-1.017,1.664,1.664,0,0,1,1.027-2.129l6.356-2.224a1.69,1.69,0,0,1,2.151,1.017,1.664,1.664,0,0,1-1.027,2.129Z" transform="translate(-428.17 -391.942)" fill="#f5f5f5"/>
    <path id="Path_2958" data-name="Path 2958" d="M608.271,489.03l-6.356,2.224a1.69,1.69,0,0,1-2.151-1.017,1.664,1.664,0,0,1,1.027-2.129l6.356-2.224A1.69,1.69,0,0,1,609.3,486.9,1.664,1.664,0,0,1,608.271,489.03Z" transform="translate(-437.249 -374.791)" fill="#f5f5f5"/>
    <path id="Path_2959" data-name="Path 2959" d="M612.237,500.247l-6.356,2.224a1.69,1.69,0,0,1-2.151-1.017,1.664,1.664,0,0,1,1.027-2.129l6.356-2.224a1.69,1.69,0,0,1,2.151,1.017A1.664,1.664,0,0,1,612.237,500.247Z" transform="translate(-439.417 -380.975)" fill="#f5f5f5"/>
    <path id="Path_2960" data-name="Path 2960" d="M616.2,511.464l-6.356,2.224a1.69,1.69,0,0,1-2.151-1.017,1.664,1.664,0,0,1,1.027-2.129l6.356-2.225a1.69,1.69,0,0,1,2.151,1.017A1.664,1.664,0,0,1,616.2,511.464Z" transform="translate(-441.585 -387.159)" fill="#f5f5f5"/>
    <path id="Path_2964" data-name="Path 2964" d="M0,0,141.013.45l0,.668L0,.668Z" transform="matrix(0.943, -0.333, 0.333, 0.943, 44.401, 133.405)" fill="#3f3d56"/>
    <path id="Path_2961" data-name="Path 2961" d="M474.46,464.81l-112.5,39.374a11.166,11.166,0,0,1-14.2-6.711l-19.327-54.109a11,11,0,0,1,6.78-14.052l112.5-39.373a11.166,11.166,0,0,1,14.2,6.711l19.327,54.109A11,11,0,0,1,474.46,464.81ZM335.437,429.942a10.329,10.329,0,0,0-6.369,13.2L348.4,497.25a10.49,10.49,0,0,0,13.335,6.3l112.5-39.373a10.329,10.329,0,0,0,6.369-13.2l-19.327-54.109a10.49,10.49,0,0,0-13.335-6.3Z" transform="translate(-288.621 -321.604)" fill="#3f3d56"/>
    <path id="Path_2962" data-name="Path 2962" d="M575.923,705.32H241.829a.449.449,0,1,1,0-.9H575.923a.449.449,0,1,1,0,.9Z" transform="translate(-241.376 -495.321)" fill="#cbcbcb"/>
  </g>
</svg>
