<svg id="Checkmark" xmlns="http://www.w3.org/2000/svg" width="21" height="21" viewBox="0 0 21 21">
  <path id="Icon_ionic-ios-checkmark-circle" data-name="Icon ionic-ios-checkmark-circle" d="M13.875,3.375a10.5,10.5,0,1,0,10.5,10.5A10.5,10.5,0,0,0,13.875,3.375Zm5.376,7.6L12.5,17.752H12.5a.912.912,0,0,1-.586.278.884.884,0,0,1-.591-.288L8.494,14.915a.2.2,0,0,1,0-.288l.9-.9a.2.2,0,0,1,.283,0l2.241,2.241,6.159-6.2a.2.2,0,0,1,.141-.061h0a.183.183,0,0,1,.141.061l.883.914A.2.2,0,0,1,19.251,10.972Z" transform="translate(-3.375 -3.375)" fill="#fff"/>
</svg>
