<svg xmlns="http://www.w3.org/2000/svg" width="65" height="75" viewBox="0 0 65 75">
  <g id="Group_641" data-name="Group 641" transform="translate(11584 23839)">
    <path id="Shape" d="M74.5,16H66.045l-2.927-5.855A7.46,7.46,0,0,0,56.41,6H42.59a7.46,7.46,0,0,0-6.707,4.145L32.955,16H24.5A7.5,7.5,0,0,0,17,23.5V26a5,5,0,0,0,5,5h.25l4.325,43.25A7.477,7.477,0,0,0,34.025,81h30.95a7.477,7.477,0,0,0,7.462-6.75L76.762,31H77a5,5,0,0,0,5-5V23.5A7.5,7.5,0,0,0,74.5,16ZM40.355,12.383A2.485,2.485,0,0,1,42.59,11H56.41a2.485,2.485,0,0,1,2.235,1.383L60.455,16H38.545ZM67.462,73.75a2.5,2.5,0,0,1-2.5,2.25H34.025a2.5,2.5,0,0,1-2.487-2.25L27.262,31H71.75ZM74.5,26H22V23.5A2.5,2.5,0,0,1,24.5,21h50A2.5,2.5,0,0,1,77,23.5V26Z" transform="translate(-11601 -23845)" fill="#00b1a1"/>
    <path id="Path" d="M28.5,49A2.5,2.5,0,0,0,31,46.5v-25a2.5,2.5,0,0,0-5,0v25A2.5,2.5,0,0,0,28.5,49Z" transform="translate(-11587.505 -23825.496)" fill="#00b1a1" fill-rule="evenodd"/>
    <path id="Path-2" data-name="Path" d="M34.5,49A2.5,2.5,0,0,0,37,46.5v-25a2.5,2.5,0,1,0-5,0v25A2.5,2.5,0,0,0,34.5,49Z" transform="translate(-11578.501 -23825.496)" fill="#00b1a1" fill-rule="evenodd"/>
  </g>
</svg>
