<svg xmlns="http://www.w3.org/2000/svg" width="12" height="12.001" viewBox="0 0 12 12.001">
  <g id="distance" transform="translate(-0.026)">
    <path id="Path_2216" data-name="Path 2216" d="M338.037,224a2.071,2.071,0,0,0-2.061,2.077,3.6,3.6,0,0,0,.926,2.118,8.1,8.1,0,0,0,.89.961.375.375,0,0,0,.5,0,8.111,8.111,0,0,0,.889-.962,3.7,3.7,0,0,0,.922-2.12A2.068,2.068,0,0,0,338.037,224Zm0,4.356a4.137,4.137,0,0,1-1.315-2.28,1.313,1.313,0,1,1,2.625,0A4.137,4.137,0,0,1,338.041,228.356Z" transform="translate(-328.075 -218.749)" fill="#00b1a1"/>
    <path id="Path_2217" data-name="Path 2217" d="M400.511,288a.563.563,0,1,0,.52.777A.563.563,0,0,0,400.511,288Z" transform="translate(-390.547 -281.249)" fill="#00b1a1"/>
    <path id="Path_2218" data-name="Path 2218" d="M1.84,5.156a.375.375,0,0,0,.5,0,8.106,8.106,0,0,0,.89-.961,3.606,3.606,0,0,0,.924-2.119,2.063,2.063,0,1,0-4.125,0A3.606,3.606,0,0,0,.95,4.195a8.106,8.106,0,0,0,.89.961ZM2.089.75A1.32,1.32,0,0,1,3.4,2.075,4.138,4.138,0,0,1,2.088,4.356,4.124,4.124,0,0,1,.776,2.075,1.32,1.32,0,0,1,2.089.75Z" fill="#00b1a1"/>
    <circle id="Ellipse_23" data-name="Ellipse 23" cx="0.563" cy="0.563" r="0.563" transform="translate(1.526 1.5)" fill="#00b1a1"/>
    <path id="Path_2219" data-name="Path 2219" d="M10.53,246.8a.563.563,0,0,1-.981.376H1.714a1.688,1.688,0,0,1,0-3.375H5.476a.926.926,0,0,0,0-1.852H2.508a.563.563,0,1,1,0-.75H5.476a1.676,1.676,0,1,1,0,3.352H1.714a.938.938,0,1,0,0,1.875H9.548a.563.563,0,0,1,.982.375Z" transform="translate(0 -235.357)" fill="#00b1a1"/>
  </g>
</svg>
