<svg xmlns="http://www.w3.org/2000/svg" width="335" height="210" viewBox="0 0 335 210">
  <g id="Group_1123" data-name="Group 1123" transform="translate(0 -7)">
    <path id="Path_2968" data-name="Path 2968" d="M513.135,236.589H481.648a1.8,1.8,0,0,1,0-3.593h31.487a1.8,1.8,0,0,1,0,3.593Z" transform="translate(-355.345 -202.484)" fill="#ccc"/>
    <path id="Path_2969" data-name="Path 2969" d="M537.466,271.595H481.648a1.8,1.8,0,0,1,0-3.595h55.817a1.8,1.8,0,0,1,0,3.595Z" transform="translate(-355.345 -224.911)" fill="#ccc"/>
    <path id="Path_2970" data-name="Path 2970" d="M523.511,306.588H481.648a1.8,1.8,0,0,1,0-3.592h41.863a1.8,1.8,0,0,1,0,3.592Z" transform="translate(-355.345 -247.33)" fill="#ccc"/>
    <path id="Path_2971" data-name="Path 2971" d="M537.466,341.593H481.648a1.8,1.8,0,0,1,0-3.593h55.817a1.8,1.8,0,0,1,0,3.593Z" transform="translate(-355.345 -269.759)" fill="#ccc"/>
    <ellipse id="Ellipse_33" data-name="Ellipse 33" cx="32.012" cy="32.148" rx="32.012" ry="32.148" transform="translate(17.979 29.597)" fill="#00b1a1"/>
    <path id="Path_2976" data-name="Path 2976" d="M332.949,257.591h-195a6.1,6.1,0,0,1-6.082-6.108V154.107A6.1,6.1,0,0,1,137.947,148h195a6.1,6.1,0,0,1,6.083,6.109v97.376A6.1,6.1,0,0,1,332.949,257.591Zm-195-108.875a5.386,5.386,0,0,0-5.366,5.391v97.376a5.384,5.384,0,0,0,5.366,5.39h195a5.384,5.384,0,0,0,5.368-5.39V154.107a5.386,5.386,0,0,0-5.368-5.391Z" transform="translate(-131.865 -140.998)" fill="#3f3d56"/>
    <ellipse id="Ellipse_42" data-name="Ellipse 42" cx="1.789" cy="1.797" rx="1.789" ry="1.797" transform="translate(116.285 30.513)" fill="#ccc"/>
    <ellipse id="Ellipse_43" data-name="Ellipse 43" cx="1.789" cy="1.797" rx="1.789" ry="1.797" transform="translate(116.285 43.089)" fill="#ccc"/>
    <ellipse id="Ellipse_44" data-name="Ellipse 44" cx="1.789" cy="1.797" rx="1.789" ry="1.797" transform="translate(116.285 55.665)" fill="#ccc"/>
    <ellipse id="Ellipse_45" data-name="Ellipse 45" cx="1.789" cy="1.797" rx="1.789" ry="1.797" transform="translate(116.285 68.241)" fill="#ccc"/>
    <path id="Path_2977" data-name="Path 2977" d="M547.9,359.122H536.97a1.35,1.35,0,0,1-1.345-1.353V344.822a1.35,1.35,0,0,1,1.345-1.353H547.9a1.35,1.35,0,0,1,1.345,1.353v12.947A1.35,1.35,0,0,1,547.9,359.122Z" transform="translate(-417.551 -262.651)" fill="#00b1a1"/>
    <path id="Path_2978" data-name="Path 2978" d="M879.391,656.667l-1.213.3q.822.118,1.644.225h20.233q2.273-.291,4.523-.719a70.413,70.413,0,0,0,25.393-10.1c4.741-3.1,9.269-6.914,11.729-12.034a21.244,21.244,0,0,0-2.594-21.809,21.85,21.85,0,0,0-6.289-5.39c-.369-.208-.732-.407-1.1-.592a23.567,23.567,0,0,0-13.06-2.4A25.906,25.906,0,0,0,899.9,616.212c-4.495,7.229-5.361,16.074-6.1,24.566-1.37-4.4-6.48-7.1-10.969-6.123a11.475,11.475,0,0,0-8.515,9.755,14.207,14.207,0,0,0,4.853,12.06C879.24,656.535,879.313,656.6,879.391,656.667Z" transform="translate(-608.604 -440.189)" fill="#00b1a1"/>
    <path id="Path_2991" data-name="Path 2991" d="M938.433,656.666l1.213.3q-.822.118-1.644.225H917.77q-2.273-.291-4.523-.719a70.412,70.412,0,0,1-25.393-10.1c-4.741-3.1-9.269-6.914-11.729-12.034a21.244,21.244,0,0,1,2.594-21.809,21.85,21.85,0,0,1,6.289-5.39c.369-.208.732-.407,1.1-.592a23.567,23.567,0,0,1,13.06-2.4,25.906,25.906,0,0,1,18.757,12.071c4.495,7.229,5.361,16.074,6.1,24.566,1.37-4.4,6.48-7.1,10.969-6.123a11.475,11.475,0,0,1,8.515,9.755,14.207,14.207,0,0,1-4.853,12.06C938.583,656.534,938.511,656.6,938.433,656.666Z" transform="translate(-874.22 -440.188)" fill="#00b1a1"/>
    <path id="Path_2993" data-name="Path 2993" d="M876,622.182l-.419.1c.189.027.378.053.567.077h6.981q.784-.1,1.561-.248a24.3,24.3,0,0,0,8.762-3.485,10.873,10.873,0,0,0,4.047-4.152,7.33,7.33,0,0,0-.9-7.525,7.539,7.539,0,0,0-2.17-1.86c-.127-.072-.253-.14-.38-.2a8.131,8.131,0,0,0-4.506-.829,8.939,8.939,0,0,0-6.472,4.165c-1.551,2.494-1.85,5.546-2.107,8.477a3.322,3.322,0,0,0-3.785-2.113,3.96,3.96,0,0,0-2.938,3.366,4.9,4.9,0,0,0,1.674,4.161Z" transform="translate(-807.22 -405.362)" fill="#00b1a1"/>
    <path id="Path_2979" data-name="Path 2979" d="M931.884,661.566H932.9a.756.756,0,0,0,.229-.306c.056-.135.112-.278.173-.413a123.96,123.96,0,0,1,36.166-48.806.575.575,0,0,0,.24-.528.789.789,0,0,0-.486-.615.776.776,0,0,0-.771.123,123.649,123.649,0,0,0-17.264,17.217,125.085,125.085,0,0,0-19.444,32.608c0,.011-.006.017-.006.031A.553.553,0,0,0,931.884,661.566Z" transform="translate(-645.501 -444.566)" fill="#fff"/>
    <path id="Path_2992" data-name="Path 2992" d="M969.495,661.566h-1.012a.756.756,0,0,1-.229-.306c-.056-.135-.112-.278-.173-.413a123.959,123.959,0,0,0-36.166-48.806.575.575,0,0,1-.24-.528.789.789,0,0,1,.486-.615.776.776,0,0,1,.771.123A123.648,123.648,0,0,1,950.2,628.239a125.084,125.084,0,0,1,19.444,32.608c0,.011.006.017.006.031A.553.553,0,0,1,969.495,661.566Z" transform="translate(-920.878 -444.566)" fill="#fff"/>
    <path id="Path_2994" data-name="Path 2994" d="M931.745,628.348h.349a.26.26,0,0,0,.079-.106c.019-.047.039-.1.06-.142a42.772,42.772,0,0,1,12.479-16.841.2.2,0,0,0,.083-.182.272.272,0,0,0-.168-.212.267.267,0,0,0-.266.043,42.665,42.665,0,0,0-5.957,5.941A43.163,43.163,0,0,0,931.7,628.1s0,.006,0,.011A.191.191,0,0,0,931.745,628.348Z" transform="translate(-857.579 -411.348)" fill="#fff"/>
    <path id="Path_2980" data-name="Path 2980" d="M833.14,476.43a4.083,4.083,0,0,1,4.07-4.09l.117,0,12.6-10.083-9.023-9.064a3.99,3.99,0,0,1,5.63-5.657l14.508,14.572L841.28,476.539a4.07,4.07,0,1,1-8.14-.109Z" transform="translate(-582.226 -339.188)" fill="#ffb8b8"/>
    <path id="Path_2981" data-name="Path 2981" d="M652.291,556.424l-4.26-1.6,4.106-17.264,6.287,2.358Z" transform="translate(-416.165 -344.436)" fill="#ffb8b8"/>
    <path id="Path_2982" data-name="Path 2982" d="M5.329.007,14.3.02l.008,5.543-14.3-.02v-.2A5.32,5.32,0,0,1,5.329.007Z" transform="translate(224.104 206.087) rotate(20.472)" fill="#2f2e41"/>
    <path id="Path_2983" data-name="Path 2983" d="M755.021,558.816h-4.551L748.313,541.2h6.709Z" transform="translate(-480.568 -346.765)" fill="#ffb8b8"/>
    <path id="Path_2984" data-name="Path 2984" d="M735.172,586.594h8.967v5.547h-14.3v-.2A5.336,5.336,0,0,1,735.172,586.594Z" transform="translate(-468.704 -375.845)" fill="#2f2e41"/>
    <path id="Path_2985" data-name="Path 2985" d="M817.578,580.848a1.616,1.616,0,0,1-.492-1.26c.811-13.455-6.25-37.909-8.431-45.081a1.223,1.223,0,0,0-.85-.837,1.266,1.266,0,0,0-1.185.267c-11.8,10.317-15.313,39.424-15.9,45.154a1.611,1.611,0,0,1-1.8,1.437l-5.887-.738a1.612,1.612,0,0,1-1.113-.671,1.641,1.641,0,0,1-.263-1.277l15.436-71.662.011-.045.028-.034c3.729-4.5,14.547-2.745,15.005-2.667l.045.006.039.031c13.882,11.563,13.177,65.169,12.9,75.8a1.607,1.607,0,0,1-1.454,1.564l-4.825.463c-.05,0-.1.006-.151.006A1.587,1.587,0,0,1,817.578,580.848Z" transform="translate(-549.143 -375.492)" fill="#2f2e41"/>
    <ellipse id="Ellipse_46" data-name="Ellipse 46" cx="8.788" cy="8.825" rx="8.788" ry="8.825" transform="translate(251.483 81.438)" fill="#ffb8b8"/>
    <path id="Path_2986" data-name="Path 2986" d="M845.314,436.778s-8.162-9.685-14.843-1.861h0a26.677,26.677,0,0,0-6.368,18.12l.252,8.514,15.391-2.423Z" transform="translate(-576.413 -329.895)" fill="#00b1a1"/>
    <path id="Path_2987" data-name="Path 2987" d="M844.682,378.551l-3.774-4.466a7.46,7.46,0,0,1-2.124-3.908,4.742,4.742,0,0,1,2.208-4.18,9.638,9.638,0,0,1,4.685-1.406,13.429,13.429,0,0,1,8.761,2.03,8.139,8.139,0,0,1,3.533,7.942c-.481,2.369-2.253,4.638-1.56,6.953.749,2.535,3.841,3.312,6.362,4.068,4.238,1.269,8.285,3.764,10.5,7.6s2.208,9.135-.749,12.43a11.1,11.1,0,0,1-7.665,3.377,22.322,22.322,0,0,1-8.414-1.437,19.782,19.782,0,0,1-6.932-3.711,9.345,9.345,0,0,1-3.321-6.937c.061-2.524,1.409-4.823,1.957-7.282a11.979,11.979,0,0,0-3.718-11.4" transform="translate(-585.84 -286.762)" fill="#2f2e41"/>
    <path id="Path_2988" data-name="Path 2988" d="M807.193,597.421H796.269a1.349,1.349,0,0,1-1.347-1.35V583.124a1.349,1.349,0,0,1,1.347-1.35h10.924a1.349,1.349,0,0,1,1.347,1.35v12.947A1.349,1.349,0,0,1,807.193,597.421Z" transform="translate(-557.678 -425.94)" fill="#00b1a1"/>
    <path id="Path_2989" data-name="Path 2989" d="M819.052,494.315a4,4,0,0,1,.788-5.213l5.976-47.321a4.19,4.19,0,0,1,4.137-3.663l.056,0a4.165,4.165,0,0,1,3.17,1.524,4.215,4.215,0,0,1,.883,3.411l-8.408,46.732v0a4.013,4.013,0,0,1-1.571,6.027,3.783,3.783,0,0,1-1.616.351A4.04,4.04,0,0,1,819.052,494.315Z" transform="translate(-572.774 -333.901)" fill="#ffb8b8"/>
    <path id="Path_2990" data-name="Path 2990" d="M820.61,750.719H728.655a.359.359,0,0,1,0-.719H820.61a.359.359,0,0,1,0,.719Z" transform="translate(-514.897 -533.719)" fill="#3f3d56"/>
    <path id="Path_2995" data-name="Path 2995" d="M820.61,750.719H728.655a.359.359,0,0,1,0-.719H820.61a.359.359,0,0,1,0,.719Z" transform="translate(-717.504 -533.719)" fill="#3f3d56"/>
  </g>
</svg>
