<svg xmlns="http://www.w3.org/2000/svg" xmlns:xlink="http://www.w3.org/1999/xlink" width="15" height="15" viewBox="0 0 15 15">
  <defs>
    <clipPath id="clip-path">
      <rect id="Rectangle_578" data-name="Rectangle 578" width="15" height="15" transform="translate(119 21)" fill="#fff"/>
    </clipPath>
  </defs>
  <g id="Mask_Group_36" data-name="Mask Group 36" transform="translate(-119 -21)" clip-path="url(#clip-path)">
    <g id="send" transform="translate(119 21)">
      <g id="Group_479" data-name="Group 479">
        <path id="Path_2076" data-name="Path 2076" d="M13.345,2.756H3.717A1.657,1.657,0,0,0,2.062,4.411V6.8H.474a.474.474,0,0,0,0,.948H2.062V9.022H1.27a.474.474,0,1,0,0,.948h.792v.619a1.657,1.657,0,0,0,1.655,1.655h9.628A1.657,1.657,0,0,0,15,10.589V4.411A1.657,1.657,0,0,0,13.345,2.756ZM3.717,3.7h9.628a.7.7,0,0,1,.444.157L9.19,7.236a1.124,1.124,0,0,1-1.319,0l-4.6-3.375A.7.7,0,0,1,3.717,3.7Zm10.336,6.885a.708.708,0,0,1-.707.707H3.717a.708.708,0,0,1-.707-.707V9.97H4.794a.474.474,0,1,0,0-.948H3.01V4.844L7.311,8a2.08,2.08,0,0,0,2.44,0l4.3-3.156v5.745Z" fill="#fff"/>
      </g>
    </g>
  </g>
</svg>
