<svg xmlns="http://www.w3.org/2000/svg" width="155.002" height="120" viewBox="0 0 155.002 120">
  <g id="Group_1138" data-name="Group 1138" transform="translate(0 -15)">
    <path id="Path_3103" data-name="Path 3103" d="M63.3,474.07c2.138,9.013,6.665,16.8,13.819,20.58,14.867,7.848,48.4,3.8,73.419-.85a57.493,57.493,0,0,0,32.583-18.366Z" transform="translate(-51.906 -377.589)" fill="#f5f5f5"/>
    <path id="Path_3104" data-name="Path 3104" d="M219.125,53.886H205.4a1.17,1.17,0,1,1,0-2.341h2.374a1.17,1.17,0,1,1,0-2.341h-1.695a1.17,1.17,0,1,1,0-2.341h7.166a19.169,19.169,0,0,0-5.59-1.52c-19.54-2.475-26.517-.838-28.978.85a27.559,27.559,0,0,1-10.043,4.341c-12.057,2.45-34.6,5.4-55.04-.947-10.157-3.158-17.706,2.177-22.23,11.087H221.509A20.669,20.669,0,0,0,219.9,53.6,1.19,1.19,0,0,1,219.125,53.886Z" transform="translate(-76.509 0.171)" fill="#f5f5f5"/>
    <path id="Path_3105" data-name="Path 3105" d="M51.738,319.2a58.83,58.83,0,0,0,.533,15.725l120.546,4.347a55.807,55.807,0,0,0,8.376-12.6Zm47.678,11.217H97.042a1.17,1.17,0,1,1,0,2.341H83.312a1.17,1.17,0,1,1,0-2.341h2.374a1.17,1.17,0,1,1,0-2.341H83.991a1.17,1.17,0,1,1,0-2.341h13.73a1.17,1.17,0,1,1,0,2.341h1.695a1.17,1.17,0,1,1,0,2.341Z" transform="translate(-41.509 -241.531)" fill="#f5f5f5"/>
    <path id="Path_3106" data-name="Path 3106" d="M188.757,181.38,57.148,184.538A51.253,51.253,0,0,0,54,197.939H186.451a54.787,54.787,0,0,0,1.913-8.543A39.924,39.924,0,0,0,188.757,181.38ZM80.719,191.725H78.345a1.17,1.17,0,1,1,0,2.341H64.615a1.17,1.17,0,1,1,0-2.341h2.374a1.17,1.17,0,1,1,0-2.341H65.294a1.17,1.17,0,1,1,0-2.341h13.73a1.17,1.17,0,1,1,0,2.341h1.695a1.17,1.17,0,1,1,0,2.341Z" transform="translate(-43.751 -120.451)" fill="#f5f5f5"/>
    <path id="Path_3086" data-name="Path 3086" d="M223.145,412.246h3.614l1.719-13.941h-5.334Z" transform="translate(-157.358 -280.88)" fill="#ffb8b8"/>
    <path id="Path_3087" data-name="Path 3087" d="M0,0H11.359V4.389H4.389A4.389,4.389,0,0,1,0,0Z" transform="translate(76.371 134.723) rotate(179.997)" fill="#2f2e41"/>
    <path id="Path_3088" data-name="Path 3088" d="M110,405.9l3.54.732,4.507-13.3-5.224-1.08Z" transform="translate(-77.572 -276.611)" fill="#ffb8b8"/>
    <path id="Path_3089" data-name="Path 3089" d="M0,0H11.359V4.389H4.389A4.389,4.389,0,0,1,0,0H0Z" transform="translate(42.117 134.722) rotate(-168.318)" fill="#2f2e41"/>
    <path id="Path_3090" data-name="Path 3090" d="M470.463,472.337a2.965,2.965,0,0,1,.425-4.526l-2.8-10.155,5.208,1.688,1.865,9.384a2.981,2.981,0,0,1-4.693,3.608Z" transform="translate(-428.229 -387.899)" fill="#ffb8b8"/>
    <path id="Path_3091" data-name="Path 3091" d="M476.609,516.392a1.325,1.325,0,0,1-1.31-1.115l-6.736-37.116a.442.442,0,0,0-.843-.108l-15.006,34.719a1.335,1.335,0,0,1-1.64.731l-5.271-1.771a1.327,1.327,0,0,1-.806-1.759l7.255-17.772,6.057-26.814.043-.033c.117-.089,11.769-8.786,19.731-1.829,7.286,6.366,5.93,42.743,5.585,49.971a1.316,1.316,0,0,1-1.008,1.223l-5.727,1.634A1.348,1.348,0,0,1,476.609,516.392Z" transform="translate(-411.878 -390.137)" fill="#2f2e41"/>
    <circle id="Ellipse_67" data-name="Ellipse 67" cx="7.241" cy="7.241" r="7.241" transform="translate(46.072 29.315)" fill="#ffb8b8"/>
    <path id="Path_3092" data-name="Path 3092" d="M555.8,461.337a2.965,2.965,0,0,1,.425-4.526l-2.8-10.155,5.208,1.688,1.865,9.384a2.981,2.981,0,0,1-4.693,3.608Z" transform="translate(-488.405 -380.142)" fill="#ffb8b8"/>
    <path id="Path_3093" data-name="Path 3093" d="M482.138,409.367a.771.771,0,0,1-.293-.058c-3.058-1.243-.62-25.505-.514-26.538l.012-.044q.114-.259.229-.507a8.741,8.741,0,0,1,8.865-5.11,8.993,8.993,0,0,1,8,6.641l5.666,20.76a1.326,1.326,0,0,1-1.568,1.644c-4.408-.985-15.092-2.733-19.075,2.29C482.969,409.062,482.534,409.367,482.138,409.367Z" transform="translate(-436.851 -331.067)" fill="#00b1a1"/>
    <path id="Path_3094" data-name="Path 3094" d="M534.4,409.484a1.334,1.334,0,0,1-.427-.071,1.316,1.316,0,0,1-.776-.693l-4.931-10.513-4.8-13.812a3.273,3.273,0,0,1,.838-3.443h0a3.267,3.267,0,0,1,5.213,1l6.385,13.794,4.982,9a1.327,1.327,0,0,1-.549,1.82l-5.326,2.77a1.32,1.32,0,0,1-.61.15Z" transform="translate(-467.16 -333.177)" fill="#00b1a1"/>
    <path id="Path_3095" data-name="Path 3095" d="M470.437,416.257a1.316,1.316,0,0,1-.143-.008l-5.97-.633a1.327,1.327,0,0,1-1.172-1.513l1.7-11.487,3.629-14.164a3.273,3.273,0,0,1,2.6-2.407h0a3.267,3.267,0,0,1,3.794,3.712l-2.3,15.026-.818,10.253a1.327,1.327,0,0,1-1.319,1.221Z" transform="translate(-424.741 -337.365)" fill="#00b1a1"/>
    <path id="Path_3096" data-name="Path 3096" d="M484.665,314.11l6.018-.438a6.151,6.151,0,0,0-3.753-6.6c-2.565-.974-5.748.108-6.734,1.66a8.564,8.564,0,1,0,2.641,16.4C480.354,321.647,481.629,316.107,484.665,314.11Z" transform="translate(-430.209 -281.448)" fill="#2f2e41"/>
    <path id="Path_3097" data-name="Path 3097" d="M429.924,312.36a12.32,12.32,0,0,0-6.661-3.371,7.168,7.168,0,0,0-6.7,2.694c-1.446,2.075-1.194,5.3.84,6.8a5.256,5.256,0,0,1-2.334,9.423,7.862,7.862,0,0,0-6.266,8.183,9.168,9.168,0,0,0,7.047,7.9,11.03,11.03,0,0,0,10.278-3.377,13.906,13.906,0,0,0,3.427-10.464,18.93,18.93,0,0,0-4.323-10.288,1.977,1.977,0,0,1,.669-2.665,10.3,10.3,0,0,1,2.856-1.1,3.078,3.078,0,0,0,2.2-1.956C431.177,313.134,430.042,311.965,429.924,312.36Z" transform="translate(-386.411 -283.022)" fill="#2f2e41"/>
    <g id="Group_1139" data-name="Group 1139" transform="translate(-2.488 15)">
      <path id="Path_3098" data-name="Path 3098" d="M738.682,272.633H697.114a5.017,5.017,0,0,1-5.012-5.012V226.053a5.018,5.018,0,0,1,5.012-5.012h41.569a5.017,5.017,0,0,1,5.012,5.012v41.569A5.018,5.018,0,0,1,738.682,272.633Zm-41.569-51a4.427,4.427,0,0,0-4.422,4.422v41.569a4.427,4.427,0,0,0,4.422,4.422h41.569a4.427,4.427,0,0,0,4.422-4.422V226.053a4.427,4.427,0,0,0-4.422-4.422Z" transform="translate(-586.204 -221.041)" fill="#27282d"/>
      <path id="Path_3099" data-name="Path 3099" d="M759.8,298.194a6.086,6.086,0,0,1-4.546-1.978,7.64,7.64,0,0,1-1.807-5.85,8.881,8.881,0,0,1,2.38-5.356,7.105,7.105,0,0,1,5.145-2.282,6.387,6.387,0,0,1,4.762,2.1,7.493,7.493,0,0,1,1.84,5.729h0a8.549,8.549,0,0,1-2.566,5.61A7.571,7.571,0,0,1,759.8,298.194Zm1.172-13.3c-2.732,0-5.092,2.489-5.372,5.666a5.484,5.484,0,0,0,1.248,4.2,3.9,3.9,0,0,0,2.951,1.276c2.549,0,5.276-1.752,5.621-5.666h0a5.33,5.33,0,0,0-1.281-4.079,4.249,4.249,0,0,0-3.167-1.4Zm5.525,5.571Z" transform="translate(-629.44 -264.542)" fill="#00b1a1"/>
      <path id="Path_3100" data-name="Path 3100" d="M750.915,279.128a4.12,4.12,0,0,1-.719-.062,4.669,4.669,0,0,1-3.089-2.008,6.809,6.809,0,0,1-.938-4.431l.705-8a1.081,1.081,0,0,1,2.154.19l-.705,8c-.2,2.295.639,3.835,2.25,4.121a3.465,3.465,0,0,0,2.526-.805c1-.767,2.254-2.352,2.535-5.549a11.573,11.573,0,0,0-2.71-9.1c-2.2-2.4-5.523-3.668-9.619-3.668a15.216,15.216,0,0,0-14.848,13.648,13.13,13.13,0,0,0,.3,4.226,1.081,1.081,0,1,1-2.1.506,15.286,15.286,0,0,1-.354-4.921,17.383,17.383,0,0,1,17-15.621c4.718,0,8.6,1.511,11.213,4.37a13.853,13.853,0,0,1,3.269,10.753c-.35,3.979-2.028,6.044-3.374,7.075a5.9,5.9,0,0,1-3.5,1.279Z" transform="translate(-610.279 -245.448)" fill="#00b1a1"/>
      <path id="Path_3101" data-name="Path 3101" d="M751.369,349.226a14.6,14.6,0,0,1-9.668-3.559,1.081,1.081,0,0,1,1.428-1.623,12.435,12.435,0,0,0,8.24,3.021,13.724,13.724,0,0,0,6.174-1.121,1.081,1.081,0,1,1,.837,1.993A15.747,15.747,0,0,1,751.369,349.226Z" transform="translate(-620.921 -307.591)" fill="#00b1a1"/>
    </g>
    <path id="Path_3102" data-name="Path 3102" d="M445.516,677.549H333.193a.295.295,0,0,1,0-.59H445.516a.295.295,0,1,1,0,.59Z" transform="translate(-332.898 -542.549)" fill="#ccc"/>
  </g>
</svg>
