<svg xmlns="http://www.w3.org/2000/svg" width="75" height="75" viewBox="0 0 75 75">
  <path id="Icon_ionic-ios-checkmark-circle" data-name="Icon ionic-ios-checkmark-circle" d="M40.875,3.375a37.5,37.5,0,1,0,37.5,37.5A37.494,37.494,0,0,0,40.875,3.375Zm19.2,27.133-24.1,24.213h-.018a3.256,3.256,0,0,1-2.091.992,3.156,3.156,0,0,1-2.109-1.028l-10.1-10.1a.718.718,0,0,1,0-1.028l3.209-3.209a.7.7,0,0,1,1.01,0l8,8,22-22.157a.712.712,0,0,1,.5-.216h0a.655.655,0,0,1,.5.216l3.155,3.263A.711.711,0,0,1,60.076,30.508Z" transform="translate(-3.375 -3.375)" fill="#00b1a1"/>
</svg>
