<svg xmlns="http://www.w3.org/2000/svg" xmlns:xlink="http://www.w3.org/1999/xlink" width="185" height="135" viewBox="0 0 185 135">
  <defs>
    <linearGradient id="linear-gradient" x1="0.5" y1="1" x2="0.5" gradientUnits="objectBoundingBox">
      <stop offset="0" stop-color="gray" stop-opacity="0.251"/>
      <stop offset="0.54" stop-color="gray" stop-opacity="0.122"/>
      <stop offset="1" stop-color="gray" stop-opacity="0.102"/>
    </linearGradient>
  </defs>
  <g id="Group_469" data-name="Group 469" transform="translate(0.007 0.02)">
    <path id="Path_1930" data-name="Path 1930" d="M63.3,474.07c2.927,12.339,9.124,23,18.918,28.174,20.353,10.744,66.255,5.2,100.513-1.164a78.71,78.71,0,0,0,44.607-25.143Z" transform="translate(-61.307 -402.587)" fill="#ffb5b2" opacity="0.1"/>
    <path id="Path_1931" data-name="Path 1931" d="M266.274,57.5h-18.8a1.6,1.6,0,1,1,0-3.2h3.249a1.6,1.6,0,1,1,0-3.2h-2.32a1.6,1.6,0,1,1,0-3.2h9.811a26.243,26.243,0,0,0-7.652-2.08c-26.751-3.389-36.3-1.147-39.671,1.164a37.729,37.729,0,0,1-13.75,5.943c-16.507,3.354-47.374,7.395-75.35-1.3C107.889,47.3,97.554,54.6,91.36,66.8H269.537a28.3,28.3,0,0,0-2.207-9.685A1.629,1.629,0,0,1,266.274,57.5Z" transform="translate(-84.636 -44.1)" fill="#ffb5b2" opacity="0.1"/>
    <path id="Path_1932" data-name="Path 1932" d="M51.847,319.2a80.54,80.54,0,0,0,.73,21.528l165.031,5.951a76.4,76.4,0,0,0,11.467-17.244Zm65.272,15.357H113.87a1.6,1.6,0,1,1,0,3.2h-18.8a1.6,1.6,0,1,1,0-3.2h3.249a1.6,1.6,0,1,1,0-3.2H96a1.6,1.6,0,1,1,0-3.2h18.8a1.6,1.6,0,1,1,0,3.2h2.32a1.6,1.6,0,1,1,0,3.2Z" transform="translate(-51.45 -273.47)" fill="#ffb5b2" opacity="0.1"/>
    <path id="Path_1933" data-name="Path 1933" d="M238.485,181.38,58.31,185.7A70.167,70.167,0,0,0,54,204.05H235.328a75.006,75.006,0,0,0,2.619-11.7A54.658,54.658,0,0,0,238.485,181.38ZM90.578,195.543H87.329a1.6,1.6,0,1,1,0,3.2h-18.8a1.6,1.6,0,1,1,0-3.2h3.249a1.6,1.6,0,1,1,0-3.2h-2.32a1.6,1.6,0,1,1,0-3.2h18.8a1.6,1.6,0,1,1,0,3.2h2.32a1.6,1.6,0,1,1,0,3.2Z" transform="translate(-53.576 -158.568)" fill="#ffb5b2" opacity="0.1"/>
    <path id="Path_1934" data-name="Path 1934" d="M330.036,198.878s-7.514-40.641-21.842-47.236a204.384,204.384,0,0,0-29-10.385,15.924,15.924,0,0,0-1.924-2.476c-5.1-5.253-8.168-5.155-8.664-5.09a25.247,25.247,0,0,1-.506-3.159c-.015-.166-.03-.321-.044-.486l.044-.022q-.046-.471-.081-.973a25.382,25.382,0,0,0,5.7-4.092c.022.072.04.143.064.216q5.516-4.6,10.8-9.445A7.33,7.33,0,0,0,287,112.469a4.72,4.72,0,0,0,.126-1.384c.046-1-.194-2.017-.234-3.028a3.421,3.421,0,0,1,.04-.479c.236-1.655,1.4-3.013,2.361-4.4a20.55,20.55,0,0,0,3.58-11.883,19.862,19.862,0,0,0-.843-5.986c-.747-2.464-2.3-5.054-4.89-5.592a21.835,21.835,0,0,0-3.064-.143c-4.231-.266-7.4-3.658-10.772-6.144a28.666,28.666,0,0,0-14.094-5.394,11.445,11.445,0,0,0-4.755.321c-3.4,1.117-5.472,4.568-8.752,5.986-2.425,1.054-5.227.883-7.757,1.675-3.765,1.181-6.961,4.989-7.045,8.9v.507c-.042,1.977.674,3.991.732,6.015q0,.274.008.55a17.875,17.875,0,0,1-1.091,6.43,8.6,8.6,0,0,0-.9,3.492,2.315,2.315,0,0,0,.56,1.829l.814-.708a24.054,24.054,0,0,0,8.473,23.088q.047.747.091,1.6c.128,2.464.229,5.556.2,8.925l-7.952,7.209L211.389,153s-18.7,3.894-14.67,29.8l1.922,16.083h17.07l-.039.085h25.336l.015-.085H301.3l-.012.085h2.361v-.085ZM268.752,134.1a17.125,17.125,0,0,1,1.214,3.293,13.372,13.372,0,0,1-1.31-3.472l.025.045Zm-28.973,3.326q0,.476-.017.959l-.04.057a8.036,8.036,0,0,1,.057-1.024Z" transform="translate(-171.756 -63.984)" fill="url(#linear-gradient)"/>
    <path id="Path_1935" data-name="Path 1935" d="M470.084,356.449l-3.372,31.761-18.043,5.654s-23.439-4.324-17.368-16.8c4.318-8.872,4.2-24.726,3.77-33.14-.169-3.416-.4-5.606-.4-5.606s30.69-26.44,28.161-2.661a55.5,55.5,0,0,0-.246,11.018C463.725,358.4,470.084,356.449,470.084,356.449Z" transform="translate(-366.418 -278.925)" fill="#fdc2cc"/>
    <path id="Path_1936" data-name="Path 1936" d="M470.084,356.449l-3.372,31.761-18.043,5.654s-23.439-4.324-17.368-16.8c4.318-8.872,4.2-24.726,3.77-33.14-.169-3.416-.4-5.606-.4-5.606s30.69-26.44,28.161-2.661a55.5,55.5,0,0,0-.246,11.018C463.725,358.4,470.084,356.449,470.084,356.449Z" transform="translate(-366.418 -278.925)" fill="#27282d" opacity="0.03"/>
    <path id="Path_1937" data-name="Path 1937" d="M484.411,332.663a55.493,55.493,0,0,0-.246,11.018,24.737,24.737,0,0,1-27.516-2.752c-.169-3.416-.4-5.606-.4-5.606S486.94,308.884,484.411,332.663Z" transform="translate(-387.996 -276.424)" fill="#27282d" opacity="0.1"/>
    <ellipse id="Ellipse_1" data-name="Ellipse 1" cx="24.451" cy="24.112" rx="24.451" ry="24.112" transform="translate(59.991 20.988)" fill="#fdc2cc"/>
    <ellipse id="Ellipse_2" data-name="Ellipse 2" cx="24.451" cy="24.112" rx="24.451" ry="24.112" transform="translate(59.991 20.988)" fill="#27282d" opacity="0.03"/>
    <path id="Path_1938" data-name="Path 1938" d="M339.218,534.48H212.411l-1.855-15.8c-3.878-25.442,14.165-29.267,14.165-29.267l19.729-8.98,7.841-7.234c-2.529,9.478,16.61,29.184,16.61,29.184h0a4.508,4.508,0,0,0,.349-.358c.516-.555,1.749-1.946,4.635-5.394,1.032-1.236,2.278-2.734,3.779-4.553,7.217-8.747,3.514-19.082,2.408-21.219l-.069-.133c-.042-.077-.074-.138-.1-.181a.269.269,0,0,0-.025-.045.265.265,0,0,1-.019-.033l9.274,7.15s.356.093,1.012.276a193.429,193.429,0,0,1,27.992,10.2C331.967,494.57,339.218,534.48,339.218,534.48Z" transform="translate(-183.279 -399.586)" fill="#00b1a1"/>
    <path id="Path_1939" data-name="Path 1939" d="M572.282,496.278c-1.518-1.5-11.8-3.326-11.8-3.326.337,3.991-12.141,10.144-12.141,10.144l.927,31.262h-5.983l-1.012-28.1,2.867-3.991h0l.349-.358a55.082,55.082,0,0,0,4.635-5.394c1.032-1.236,2.278-2.734,3.779-4.553,7.217-8.747,3.514-19.082,2.408-21.218l-.069-.133c-.041-.078-.073-.138-.1-.181a.27.27,0,0,0-.025-.045.262.262,0,0,1-.018-.033h0s3.035-.665,8.431,4.989a15.608,15.608,0,0,1,1.855,2.438C570.766,484.713,573.619,497.6,572.282,496.278Z" transform="translate(-459.511 -399.465)" fill="#00b1a1"/>
    <path id="Path_1940" data-name="Path 1940" d="M572.282,496.278c-1.518-1.5-11.8-3.326-11.8-3.326.337,3.991-12.141,10.144-12.141,10.144l.927,31.262h-5.983l-1.012-28.1,2.867-3.991h0l.349-.358a55.082,55.082,0,0,0,4.635-5.394c1.032-1.236,2.278-2.734,3.779-4.553,7.217-8.747,3.514-19.082,2.408-21.218l-.069-.133c-.041-.078-.073-.138-.1-.181a.27.27,0,0,0-.025-.045.262.262,0,0,1-.018-.033h0s3.035-.665,8.431,4.989a15.608,15.608,0,0,1,1.855,2.438C570.766,484.713,573.619,497.6,572.282,496.278Z" transform="translate(-459.511 -399.465)" fill="#00b1a1" opacity="0.1"/>
    <path id="Path_1941" data-name="Path 1941" d="M313.25,703.4s7.925,15.964,8.347,25.359" transform="translate(-269.109 -593.782)" fill="#27282d" opacity="0.1"/>
    <path id="Path_1942" data-name="Path 1942" d="M762.577,714.31,760.3,730.523h2.276Z" transform="translate(-632.099 -595.545)" fill="#27282d" opacity="0.1"/>
    <path id="Path_1943" data-name="Path 1943" d="M323.75,500.188,336.313,472a45.013,45.013,0,0,0,4.384-13.3c.843-6.652,5.4-17.128,5.4-17.128s11.3-14.135,16.525-12.139-4.553,9.478-4.553,9.478,14.333,5.488,4.553,21.784-9.949,13.3-9.949,13.3l-4.806,26.19Z" transform="translate(-277.839 -365.211)" fill="#27282d" opacity="0.1"/>
    <path id="Path_1944" data-name="Path 1944" d="M321.75,500.171l12.563-28.186a45.013,45.013,0,0,0,4.384-13.3c.536-4.229,2.572-10,3.983-13.651a20.879,20.879,0,0,1,4-6.485c3.652-4.031,10.286-10.531,13.939-9.134,5.227,2-4.553,9.479-4.553,9.479s14.333,5.488,4.553,21.784-9.949,13.3-9.949,13.3l-4.806,26.19Z" transform="translate(-276.176 -365.194)" fill="#fdc2cc"/>
    <ellipse id="Ellipse_3" data-name="Ellipse 3" cx="0.506" cy="0.499" rx="0.506" ry="0.499" transform="translate(91.44 31.048)" fill="#fff" opacity="0.15"/>
    <ellipse id="Ellipse_4" data-name="Ellipse 4" cx="0.506" cy="0.499" rx="0.506" ry="0.499" transform="translate(89.079 32.046)" fill="#fff" opacity="0.15"/>
    <path id="Path_1945" data-name="Path 1945" d="M409.685,92.853c2.44-.778,5.148-.61,7.489-1.645,3.165-1.4,5.16-4.789,8.445-5.887a10.991,10.991,0,0,1,4.588-.314,27.378,27.378,0,0,1,13.6,5.3c3.256,2.443,6.312,5.774,10.394,6.035a20.56,20.56,0,0,1,2.956.14c2.5.529,4,3.071,4.721,5.488a20.421,20.421,0,0,1-2.641,17.061c-.924,1.364-2.05,2.7-2.278,4.324-.223,1.593.465,3.244.064,4.8a7.168,7.168,0,0,1-2.334,3.2q-5.1,4.758-10.426,9.271c-1.845-5.78.862-12,.44-18.049-.169-2.355-1.012-4.925-3.118-6.036-1.971-1.038-4.49-.5-6.485-1.5-2.226-1.106-3.14-3.725-4.823-5.537-2.867-3.093-7.843-3.492-11.851-2.1s-7.285,4.27-10.455,7.072l-5.762,5.1c-1.125-1.25-.271-3.169.337-4.733a18.991,18.991,0,0,0,1.045-7.357c-.049-2-.747-3.966-.707-5.908A10.02,10.02,0,0,1,409.685,92.853Z" transform="translate(-342.613 -78.14)" fill="#27282d" opacity="0.1"/>
    <path id="Path_1946" data-name="Path 1946" d="M409.685,89.853c2.44-.778,5.148-.61,7.489-1.645,3.165-1.4,5.16-4.789,8.445-5.887a10.991,10.991,0,0,1,4.588-.314,27.379,27.379,0,0,1,13.6,5.3c3.256,2.443,6.312,5.774,10.394,6.035a20.56,20.56,0,0,1,2.956.14c2.5.529,4,3.071,4.721,5.488a20.421,20.421,0,0,1-2.641,17.061c-.924,1.364-2.05,2.7-2.278,4.324-.223,1.593.465,3.244.064,4.8a7.167,7.167,0,0,1-2.334,3.2q-5.1,4.758-10.426,9.271c-1.845-5.78.862-12,.44-18.049-.169-2.355-1.012-4.925-3.118-6.036-1.971-1.038-4.49-.5-6.485-1.5-2.226-1.106-3.14-3.725-4.823-5.537-2.867-3.093-7.843-3.492-11.851-2.1s-7.285,4.27-10.455,7.072l-5.762,5.1c-1.125-1.25-.271-3.169.337-4.733a18.991,18.991,0,0,0,1.045-7.357c-.049-2-.747-3.966-.707-5.908A10.02,10.02,0,0,1,409.685,89.853Z" transform="translate(-342.613 -75.639)" fill="#5e5c5c"/>
  </g>
</svg>
