<svg xmlns="http://www.w3.org/2000/svg" width="29" height="24" viewBox="0 0 29 24">
  <g id="Icon_feather-camera" data-name="Icon feather-camera" transform="translate(-0.5 -3.5)">
    <path id="Path_3084" data-name="Path 3084" d="M28.5,24.056A2.45,2.45,0,0,1,26.045,26.5H3.955A2.45,2.45,0,0,1,1.5,24.056V10.611A2.45,2.45,0,0,1,3.955,8.167H8.864L11.318,4.5h7.364l2.455,3.667h4.909A2.45,2.45,0,0,1,28.5,10.611Z" fill="none" stroke="#fff" stroke-linecap="round" stroke-linejoin="round" stroke-width="2"/>
    <path id="Path_3085" data-name="Path 3085" d="M21.818,18.389A4.909,4.909,0,1,1,16.909,13.5,4.9,4.9,0,0,1,21.818,18.389Z" transform="translate(-1.909 -1.667)" fill="none" stroke="#fff" stroke-linecap="round" stroke-linejoin="round" stroke-width="2"/>
  </g>
</svg>
