<svg xmlns="http://www.w3.org/2000/svg" width="315" height="280" viewBox="0 0 315 280">
  <g id="Group_492" data-name="Group 492" transform="translate(0 0)">
    <path id="Path_2093" data-name="Path 2093" d="M744.289,665.5l-.427-.156c-.089-.029-9.263-3.555-13.56-11.573s-2.193-17.656-2.173-17.764l.1-.43.417.156c.089.029,9.269,3.564,13.56,11.582s2.193,17.657,2.173,17.754Zm-13.3-12.1c3.637,6.768,10.886,10.235,12.722,11.036.347-1.973,1.444-9.981-2.183-16.749s-10.881-10.244-12.722-11.035C728.457,638.627,727.36,646.635,730.987,653.4Z" transform="translate(-443.235 -385.877)" fill="#00b1a1"/>
    <path id="Path_2094" data-name="Path 2094" d="M716,669.677c7.725,4.678,10.7,13.946,10.7,13.946s-9.541,1.709-17.266-2.959-10.7-13.946-10.7-13.946S708.279,665.009,716,669.677Z" transform="translate(-425.652 -404.592)" fill="#00b1a1"/>
    <path id="Path_2095" data-name="Path 2095" d="M423.573,348.066a4.884,4.884,0,0,1,7.214-1.133,5.173,5.173,0,0,1,.477.454l19.231-2.812,1.072-14.541a4.194,4.194,0,1,1,8.365.625.359.359,0,0,0-.005.078l-1.875,20.4-.01.049a3.8,3.8,0,0,1-3.671,2.676l-22.62-.391a3.768,3.768,0,0,1-.288.386,4.868,4.868,0,0,1-7.293.3c-.094-.1-.188-.2-.278-.308A4.964,4.964,0,0,1,423.573,348.066Z" transform="translate(-257.558 -198.001)" fill="#ffb7b7"/>
    <path id="Path_2096" data-name="Path 2096" d="M511.39,664.611H505.9l-2.61-21.27h8.1Z" transform="translate(-306.598 -390.586)" fill="#ffb7b7"/>
    <path id="Path_2097" data-name="Path 2097" d="M500.016,700.035H482.328v-.225a6.9,6.9,0,0,1,6.887-6.914h10.8Z" transform="translate(-293.826 -420.676)" fill="#2f2e41"/>
    <path id="Path_2098" data-name="Path 2098" d="M599.487,653.644l-5.189,1.787L585,636.143l7.661-2.627Z" transform="translate(-356.37 -384.624)" fill="#ffb7b7"/>
    <path id="Path_2099" data-name="Path 2099" d="M603.081,686.019l-16.74,5.742-.074-.215a6.93,6.93,0,0,1,4.292-8.779h0l10.231-3.506Z" transform="translate(-356.92 -412.399)" fill="#2f2e41"/>
    <path id="Path_2100" data-name="Path 2100" d="M511.5,222.2s-5.458-1.812-8.971,5.437a139.749,139.749,0,0,1-8.97,15.227l3.121.725s.779-5.076,2.734-5.8l-.784,6.521s23.4,7.615,33.927-.723l-.387-2.539a2.353,2.353,0,0,1,1.563,2.539L534.9,242.5a19.79,19.79,0,0,0-4.679-5.076c-2.307-1.9-3.1-5.522-3.369-7.788a9.094,9.094,0,0,0-2.332-5.135C522.188,221.986,517.936,219.318,511.5,222.2Z" transform="translate(-300.667 -132.143)" fill="#2f2e41"/>
    <ellipse id="Ellipse_20" data-name="Ellipse 20" cx="9.972" cy="10.024" rx="9.972" ry="10.024" transform="translate(202.872 95.336)" fill="#ffb7b7"/>
    <path id="Path_2101" data-name="Path 2101" d="M501.174,308.677l-1.816-.61s-3.622,1.519-3.622,4.253-.61,13.667-.61,13.667l8.162.913Z" transform="translate(-301.622 -187.035)" fill="#00b1a1"/>
    <path id="Path_2102" data-name="Path 2102" d="M585.514,379.718a4.754,4.754,0,0,1-.109-6.187l-5.091-42.848a3.8,3.8,0,1,1,7.591-.4v.044l4.555,42.892a7.042,7.042,0,0,1,.457.542,4.79,4.79,0,0,1-1.072,6.66c-.049.039-.1.073-.154.107h0a4.74,4.74,0,0,1-4.019.586A4.684,4.684,0,0,1,585.514,379.718Z" transform="translate(-353.512 -198.327)" fill="#ffb7b7"/>
    <path id="Path_2114" data-name="Path 2114" d="M585.514,379.718a4.754,4.754,0,0,1-.109-6.187l-5.091-42.848a3.8,3.8,0,1,1,7.591-.4v.044l4.555,42.892a7.042,7.042,0,0,1,.457.542,4.79,4.79,0,0,1-1.072,6.66c-.049.039-.1.073-.154.107h0a4.74,4.74,0,0,1-4.019.586A4.684,4.684,0,0,1,585.514,379.718Z" transform="translate(-371.169 -221.239)" fill="#ffb7b7"/>
    <path id="Path_2103" data-name="Path 2103" d="M581.695,324.576l8.157-.908s-.6-10.933-.6-13.667-3.627-4.253-3.627-4.253l-1.816.605Z" transform="translate(-354.36 -185.627)" fill="#00b1a1"/>
    <path id="Path_2104" data-name="Path 2104" d="M501.909,392.3a65.807,65.807,0,0,0-6.951,28.267c0,15.489-.6,86.574-.6,86.574s9.064,4.253,14.5-.908l4.837-78.683,19.038,77.16s9.065,1.821,13.3-1.216l-8.162-53.771s-3.324-50.421-12.389-54.068S501.909,392.3,501.909,392.3Z" transform="translate(-301.15 -238.173)" fill="#2f2e41"/>
    <path id="Path_2105" data-name="Path 2105" d="M516.48,244.8a27.44,27.44,0,0,0,8.281-9.046s6.475,7.237,10.439,7.6.357-8.684.357-8.684l-7.194-1.809-6.842.728-5.4,3.613Z" transform="translate(-314.41 -139.375)" fill="#2f2e41"/>
    <path id="Path_2106" data-name="Path 2106" d="M531.037,301.082s.283-.156-16.924.474l-7.2,1.992-.958.264s.908,18.233,3.324,21.568,1.816,5.166,1.21,5.469-2.113-.3-1.21,1.221,2.119.605.908,1.514-1.811,4.253-1.811,4.253l26.589,3.647s.9-11.846,3.324-17.925a78.653,78.653,0,0,0,3.021-8.506L539.5,302.908Z" transform="translate(-308.217 -182.785)" fill="#00b1a1"/>
    <path id="Path_2107" data-name="Path 2107" d="M224.461,66.484h-1.529V24.373A24.309,24.309,0,0,0,198.687,0H109.936A24.309,24.309,0,0,0,85.691,24.373V255.4a24.309,24.309,0,0,0,24.245,24.373h88.752A24.309,24.309,0,0,0,222.932,255.4h0V96.459h1.529Z" transform="translate(-52.201 0)" fill="#3f3d56"/>
    <path id="Path_2108" data-name="Path 2108" d="M228.2,34.344V265.028a18.138,18.138,0,0,1-18.074,18.2h-89.21a18.14,18.14,0,0,1-18.106-18.176V34.344a18.142,18.142,0,0,1,18.081-18.2h10.844a8.687,8.687,0,0,0,.825,8.089,8.592,8.592,0,0,0,7.14,3.823h50.845a8.593,8.593,0,0,0,7.141-3.823,8.689,8.689,0,0,0,.825-8.089h11.583A18.138,18.138,0,0,1,228.2,34.312Z" transform="translate(-62.631 -9.801)" fill="#fff"/>
    <path id="Path_2109" data-name="Path 2109" d="M228.2,68.474V60.616H216.371V17.267a17.955,17.955,0,0,0-6.276-1.124h-1.539V60.616H167.52V28.055H159.7V60.616H125.312V16.143h-4.394a17.837,17.837,0,0,0-3.423.326V60.616H102.811v7.858h14.684V86.648L102.811,95.17v9.075l14.684-8.521V149.8H102.811v7.857h14.684v78.182H102.811V243.7h14.684V282.9a17.874,17.874,0,0,0,3.423.326h4.394V243.7H159.7v39.535h7.817V243.7h41.036v39.535h1.539a17.955,17.955,0,0,0,6.276-1.124V243.7H228.2v-7.858H216.371v-34.18H228.1V193.8H216.371V157.656H228.2V149.8H216.371v-47.93H228.2V94.011H216.371V68.474Zm-79.391,0h0l-23.5,13.641h0V68.474Zm-23.5,22.712h0L159.7,71.224V149.8H125.312Zm0,144.652V157.656H159.7v78.182Zm83.244,0H167.52v-34.18h41.036Zm0-42.038H167.52V157.656h41.036Zm0-44H167.52V101.868h41.036Zm0-55.788H167.52V68.474h41.036Z" transform="translate(-62.631 -9.801)" fill="#e5e5e5"/>
    <path id="Path_2110" data-name="Path 2110" d="M300.27,144.893c0,24.952-44.944,80.54-44.944,80.54s-44.944-55.587-44.944-80.54a44.945,44.945,0,1,1,89.889,0Z" transform="translate(-128.161 -60.539)" fill="#00b1a1"/>
    <path id="Path_2111" data-name="Path 2111" d="M310.533,168.427a26.576,26.576,0,1,1-26.577-26.714h0a26.632,26.632,0,0,1,26.577,26.69Z" transform="translate(-156.791 -86.037)" fill="#fff"/>
    <ellipse id="Ellipse_21" data-name="Ellipse 21" cx="9.901" cy="9.953" rx="9.901" ry="9.953" transform="translate(117.172 73.031)" fill="#00b1a1"/>
    <path id="Path_2112" data-name="Path 2112" d="M317.4,252.355a26.488,26.488,0,0,1-28.556,0,14.829,14.829,0,0,1,28.556,0Z" transform="translate(-175.956 -146.636)" fill="#00b1a1"/>
    <ellipse id="Ellipse_22" data-name="Ellipse 22" cx="12.115" cy="12.179" rx="12.115" ry="12.179" transform="translate(115.05 173.145)" fill="#00b1a1"/>
    <path id="Path_2113" data-name="Path 2113" d="M314.609,711.494H.391A.385.385,0,0,1,0,711.1a.391.391,0,0,1,.391-.391H314.609a.391.391,0,0,1,.391.391A.385.385,0,0,1,314.609,711.494Z" transform="translate(0 -431.494)" fill="#cbcbcb"/>
  </g>
</svg>
