<svg id="Password_Eye" data-name="Password Eye" xmlns="http://www.w3.org/2000/svg" width="24" height="15" viewBox="0 0 24 15">
  <g id="Icon_ionic-ios-eye" data-name="Icon ionic-ios-eye">
    <path id="Path_1857" data-name="Path 1857" d="M14.239,7.875c-4.307,0-7.7,2.635-11.763,6.943a.807.807,0,0,0-.005,1.109c3.477,3.734,6.541,6.948,11.769,6.948,5.164,0,9.037-4.047,11.79-6.979a.8.8,0,0,0,.027-1.078C23.249,11.51,19.365,7.875,14.239,7.875Zm.236,12.182a4.69,4.69,0,1,1,4.591-4.464A4.757,4.757,0,0,1,14.475,20.057Z" transform="translate(-2.252 -7.875)" fill="#fff"/>
    <path id="Path_1858" data-name="Path 1858" d="M16.929,14.385a2.387,2.387,0,0,1,.166-.88c-.054,0-.107-.005-.166-.005a3.338,3.338,0,1,0,3.428,3.333c0-.068-.005-.135-.005-.2a2.447,2.447,0,0,1-3.423-2.245Z" transform="translate(-4.931 -9.333)" fill="#fff"/>
  </g>
</svg>
