<svg id="Password_Eye" data-name="Password Eye" xmlns="http://www.w3.org/2000/svg" width="24" height="21" viewBox="0 0 24 21">
  <g id="Icon_ionic-ios-eye-off" data-name="Icon ionic-ios-eye-off">
    <path id="Path_1851" data-name="Path 1851" d="M5.8,4.724a.751.751,0,0,0-1.077.005.787.787,0,0,0,0,1.094L23.774,25.275a.754.754,0,0,0,1.077-.005.787.787,0,0,0,0-1.094Z" transform="translate(-2.788 -4.499)" fill="#fff"/>
    <g id="Group_465" data-name="Group 465" transform="translate(0 3)">
      <path id="Path_1852" data-name="Path 1852" d="M14.477,21.005a4.758,4.758,0,0,1-5.042-4.9A4.578,4.578,0,0,1,9.9,14.318L7.035,11.531a37.154,37.154,0,0,0-4.56,4.234.807.807,0,0,0-.005,1.109c3.477,3.734,6.542,6.948,11.771,6.948a10.561,10.561,0,0,0,4.41-1L16.32,20.557A4.982,4.982,0,0,1,14.477,21.005Z" transform="translate(-2.252 -8.823)" fill="#fff"/>
      <path id="Path_1853" data-name="Path 1853" d="M28.4,15.9a.8.8,0,0,0,.027-1.078c-2.8-3.307-6.687-6.943-11.814-6.943a10.268,10.268,0,0,0-4.394.99l2.341,2.276a4.831,4.831,0,0,1,1.838-.448,4.758,4.758,0,0,1,5.042,4.9,4.578,4.578,0,0,1-.461,1.786l2.867,2.786A35.014,35.014,0,0,0,28.4,15.9Z" transform="translate(-4.624 -7.875)" fill="#fff"/>
      <path id="Path_1854" data-name="Path 1854" d="M13.511,17.916a3.4,3.4,0,0,0,3.156,3.068,3.44,3.44,0,0,0,1.254-.135l-4.276-4.156A3.317,3.317,0,0,0,13.511,17.916Z" transform="translate(-4.929 -10.161)" fill="#fff"/>
      <path id="Path_1855" data-name="Path 1855" d="M22.142,17.929c0-.068-.005-.135-.005-.2a2.434,2.434,0,0,1-.975.2c-.059,0-.113,0-.166-.005l1,.974A3.245,3.245,0,0,0,22.142,17.929Z" transform="translate(-6.712 -10.429)" fill="#fff"/>
      <path id="Path_1856" data-name="Path 1856" d="M17.69,14.385a2.387,2.387,0,0,1,.166-.88c-.054,0-.107-.005-.166-.005a3.48,3.48,0,0,0-.991.146l1,.974C17.7,14.542,17.69,14.464,17.69,14.385Z" transform="translate(-5.69 -9.333)" fill="#fff"/>
    </g>
  </g>
</svg>
