<svg xmlns="http://www.w3.org/2000/svg" width="174.995" height="120" viewBox="0 0 174.995 120">
  <g id="Group_1145" data-name="Group 1145" transform="translate(2.52)">
    <ellipse id="Ellipse_69" data-name="Ellipse 69" cx="34.365" cy="2.61" rx="34.365" ry="2.61" transform="translate(-2.52 114.78)" fill="#e6e6e6"/>
    <path id="Path_3108" data-name="Path 3108" d="M324.272,230.732c5.98-2.544,13.429-.932,20.7.187.068-1.355.888-3,.029-3.948a2.871,2.871,0,0,1-.32-3.568c1.607-3.1-.7-6.4-3.02-9.149a5.148,5.148,0,0,0-4.3-1.8l-4.306.308a5.157,5.157,0,0,0-4.579,3.686h0a5.038,5.038,0,0,0-1.232,4.18,2.689,2.689,0,0,0-1.107,3.755,2.159,2.159,0,0,1-.027,2.633,12.156,12.156,0,0,0-1.807,3.59Z" transform="translate(-298.004 -204.106)" fill="#2f2e41"/>
    <path id="Path_3109" data-name="Path 3109" d="M524.476,622.537H402.587a4.087,4.087,0,0,1-4.087-4.087h0a550.918,550.918,0,0,1,130.063,0h0a4.087,4.087,0,0,1-4.087,4.087Z" transform="translate(-356.088 -518.799)" fill="#2f2e41"/>
    <path id="Path_3110" data-name="Path 3110" d="M528.563,321.166l-130.063-.24,15.074-25.364.072-.12v-55.9a5.166,5.166,0,0,1,5.167-5.166h88.717a5.166,5.166,0,0,1,5.166,5.167v56.282Z" transform="translate(-356.088 -221.274)" fill="#3f3d56"/>
    <path id="Path_3111" data-name="Path 3111" d="M485.3,250.957a1.685,1.685,0,0,0-1.683,1.683v50.967a1.685,1.685,0,0,0,1.683,1.683h89.674a1.685,1.685,0,0,0,1.683-1.683V252.639a1.685,1.685,0,0,0-1.683-1.683Z" transform="translate(-422.689 -234.248)" fill="#fff"/>
    <path id="Path_3112" data-name="Path 3112" d="M473.772,531.718a.723.723,0,0,0-.655.42l-4.645,10.1a.721.721,0,0,0,.655,1.023H566.8a.721.721,0,0,0,.645-1.044l-5.049-10.1a.718.718,0,0,0-.645-.4Z" transform="translate(-410.79 -453.945)" fill="#2f2e41"/>
    <circle id="Ellipse_70" data-name="Ellipse 70" cx="1.082" cy="1.082" r="1.082" transform="translate(106.001 13.704)" fill="#fff"/>
    <path id="Path_3113" data-name="Path 3113" d="M644.914,593.619a.722.722,0,0,0-.7.534l-1.165,4.327a.721.721,0,0,0,.7.909h22.157a.721.721,0,0,0,.681-.957l-1.5-4.327a.722.722,0,0,0-.682-.485Z" transform="translate(-547.431 -502.382)" fill="#2f2e41"/>
    <path id="Path_3114" data-name="Path 3114" d="M363.428,337.135v.962H264.306l.075-.12v-.841Z" transform="translate(-206.82 -263.809)" fill="#2f2e41"/>
    <circle id="Ellipse_71" data-name="Ellipse 71" cx="16.829" cy="16.829" r="16.829" transform="translate(137.014 0)" fill="#00b1a1"/>
    <path id="Path_3115" data-name="Path 3115" d="M889.263,248.03H875.319a.963.963,0,0,1-.962-.962v-8.414a.963.963,0,0,1,.962-.962h13.944a.963.963,0,0,1,.962.962v8.414A.963.963,0,0,1,889.263,248.03Zm-13.944-9.376v8.414h13.945v-8.414Z" transform="translate(-728.448 -223.869)" fill="#fff"/>
    <path id="Path_3116" data-name="Path 3116" d="M899.593,210.976h-8.655v-3.847c0-2.786,1.82-4.808,4.327-4.808s4.327,2.022,4.327,4.808Zm-7.693-.962h6.732v-2.885c0-2.265-1.384-3.847-3.366-3.847s-3.366,1.582-3.366,3.847Z" transform="translate(-741.422 -196.19)" fill="#fff"/>
    <circle id="Ellipse_72" data-name="Ellipse 72" cx="0.962" cy="0.962" r="0.962" transform="translate(152.882 17.791)" fill="#fff"/>
    <path id="Path_3117" data-name="Path 3117" d="M602.866,350.2h-69.3a1.285,1.285,0,0,1-1.283-1.283V331.725a1.285,1.285,0,0,1,1.283-1.283h69.3a1.285,1.285,0,0,1,1.283,1.283v17.191A1.285,1.285,0,0,1,602.866,350.2Zm-69.3-19.245a.771.771,0,0,0-.77.77v17.191a.771.771,0,0,0,.77.77h69.3a.771.771,0,0,0,.77-.77V331.725a.771.771,0,0,0-.77-.77Z" transform="translate(-460.771 -296.445)" fill="#e6e6e6"/>
    <circle id="Ellipse_73" data-name="Ellipse 73" cx="5.228" cy="5.228" r="5.228" transform="translate(78.332 37.988)" fill="#e6e6e6"/>
    <path id="Path_3118" data-name="Path 3118" d="M640.068,356.8a.871.871,0,1,0,0,1.743h41.076a.871.871,0,0,0,0-1.743Z" transform="translate(-544.434 -317.075)" fill="#e6e6e6"/>
    <path id="Path_3119" data-name="Path 3119" d="M640.068,380.842a.871.871,0,1,0,0,1.743h17.675a.871.871,0,1,0,0-1.743Z" transform="translate(-544.434 -335.884)" fill="#e6e6e6"/>
    <path id="Path_3120" data-name="Path 3120" d="M420.347,355.59,407.536,362.4l-.162-5.676a37.942,37.942,0,0,0,11.838-3.892l1.34-3.31a2.244,2.244,0,0,1,3.814-.582h0a2.244,2.244,0,0,1-.2,3.06Z" transform="translate(-363.032 -310.279)" fill="#ffb8b8"/>
    <path id="Path_3121" data-name="Path 3121" d="M322.779,532.365h0a2.517,2.517,0,0,1,.32-2.036l2.814-4.319a4.918,4.918,0,0,1,6.38-1.683h0c-1.183,2.013-1.018,3.779.408,5.314a25.584,25.584,0,0,0-6.076,4.142,2.517,2.517,0,0,1-3.847-1.418Z" transform="translate(-296.767 -447.73)" fill="#2f2e41"/>
    <path id="Path_3122" data-name="Path 3122" d="M384.757,469.233h0a4.829,4.829,0,0,1-4.1,2.344l-18.7.142-.811-4.7,8.271-2.433-6.973-5.352,7.622-8.919,13.844,12.9a4.829,4.829,0,0,1,.848,6.017Z" transform="translate(-326.858 -390.245)" fill="#2f2e41"/>
    <path id="Path_3123" data-name="Path 3123" d="M321.443,454.72h-4.379c-3.931-26.947-7.933-53.97,3.892-64.056l13.946,2.27-1.784,11.838-7.784,8.919Z" transform="translate(-289.264 -343.569)" fill="#2f2e41"/>
    <path id="Path_3124" data-name="Path 3124" d="M336.681,685.373h0a2.517,2.517,0,0,1-2.036-.319l-4.754-.639a4.918,4.918,0,0,1-1.684-6.38h0c2.013,1.183,3.779,1.018,5.314-.409,1.084,2.19,2.871,2.056,4.578,3.9a2.517,2.517,0,0,1-1.418,3.847Z" transform="translate(-300.652 -568.117)" fill="#2f2e41"/>
    <path id="Path_3125" data-name="Path 3125" d="M370,267.645l-8.108-1.946a14.021,14.021,0,0,0,.811-9.081l5.514-.162A42.333,42.333,0,0,0,370,267.645Z" transform="translate(-327.442 -238.551)" fill="#ffb8b8"/>
    <path id="Path_3126" data-name="Path 3126" d="M354.8,318.469c-5.9,4.022-10.073.138-13.256-5.856.442-3.667-.274-8.056-1.6-12.825a8.73,8.73,0,0,1,5.33-10.527h0l6.973,2.919c5.921,4.826,7.086,10.054,4.865,15.568Z" transform="translate(-310.011 -264.221)" fill="#00b1a1"/>
    <path id="Path_3127" data-name="Path 3127" d="M278.969,302.621l-6.487,3.406L284,312.838l1.6,3.952a2.1,2.1,0,0,1-1.259,2.769h0a2.1,2.1,0,0,1-2.776-1.858l-.162-2.754-14.634-4.829a3.422,3.422,0,0,1-2.147-2.09h0a3.422,3.422,0,0,1,1.284-3.981l11.768-8.073Z" transform="translate(-251.168 -269.473)" fill="#ffb8b8"/>
    <path id="Path_3128" data-name="Path 3128" d="M329.64,297.11c-2.705-1.186-5.165.1-8.271,1.135l-.486-8.595c3.083-1.643,6.023-2.086,8.757-.811Z" transform="translate(-295.353 -263.313)" fill="#00b1a1"/>
    <circle id="Ellipse_74" data-name="Ellipse 74" cx="5.177" cy="5.177" r="5.177" transform="translate(32.347 11.808)" fill="#ffb8b8"/>
    <path id="Path_3129" data-name="Path 3129" d="M363.027,232.511c-5.126.5-9.031-.336-11.527-2.723v-1.922h11.092Z" transform="translate(-319.31 -216.18)" fill="#2f2e41"/>
  </g>
</svg>
