<svg xmlns="http://www.w3.org/2000/svg" width="315" height="255" viewBox="0 0 315 255">
  <g id="Group_1164" data-name="Group 1164" transform="translate(0 0)">
    <ellipse id="Ellipse_75" data-name="Ellipse 75" cx="155.629" cy="12.217" rx="155.629" ry="12.217" transform="translate(3.741 230.567)" fill="#3f3d56"/>
    <path id="Path_3133" data-name="Path 3133" d="M764.727,583.067l1.459,10.748-10.211.977,1.459-13.191Z" transform="translate(-473.158 -362.978)" fill="#a0616a"/>
    <path id="Path_3134" data-name="Path 3134" d="M812.71,303.812s.972,13.191.972,13.679-6.807,34.2-6.807,34.2-9.724,18.565,0,18.076,6.807-17.587,6.807-17.587l10.211-28.335-4.376-20.03Z" transform="translate(-569.276 -231.263)" fill="#a0616a"/>
    <path id="Path_3135" data-name="Path 3135" d="M691.151,583.067l-1.459,10.748,10.211.977L698.444,581.6Z" transform="translate(-431.672 -362.978)" fill="#a0616a"/>
    <path id="Path_3136" data-name="Path 3136" d="M837.546,424.525l-2.431,3.42s-1.459,14.656,0,19.542,4.376,27.358,4.376,28.824.486,2.443,0,2.931-1.945.489-.972,1.466.972,3.908.972,3.908v2.443l6.321,36.152s-3.89,4.4-.972,4.4,13.614,0,13.128-4.885l-.972-.489s-1.459-32.244-.972-33.709a12.53,12.53,0,0,0,0-4.4s-.972-1.466,0-1.954.972-4.4.972-4.4l4.376-29.8s3.89,20.03,6.321,21.984,1.945,6.84,1.945,6.84l1.945,42.992s-1.945,4.885,0,5.863,10.211,4.4,10.7-.489,2.917-47.389,2.917-49.343-.486-2.931,0-4.4-.486-1.466,0-1.466-.972-1.466-.972-2.443V443.578s.486-4.885.972-5.863-.486-1.954,0-3.42-.972-6.351-.972-6.351l-21.88-5.863Z" transform="translate(-589.251 -305.076)" fill="#2f2e41"/>
    <path id="Path_3137" data-name="Path 3137" d="M865.074,715.65s2.431-2.443-.972-2.443a15.764,15.764,0,0,0-6.321,1.466l-2.431,8.794s-9.968,8.061,1.215,7.084,9.481-.244,9.481-.244,3.4-.977,3.89-1.954-.972-15.145-.972-15.145S867.505,717.116,865.074,715.65Z" transform="translate(-599.761 -486.768)" fill="#2f2e41"/>
    <path id="Path_3138" data-name="Path 3138" d="M933.406,715.65s-2.431-2.443.972-2.443a15.764,15.764,0,0,1,6.321,1.466l2.431,8.794s9.968,8.061-1.215,7.084-10.94-.244-10.94-.244-3.4-.977-3.89-1.954,2.431-15.145,2.431-15.145S930.975,717.116,933.406,715.65Z" transform="translate(-647.185 -486.768)" fill="#2f2e41"/>
    <ellipse id="Ellipse_76" data-name="Ellipse 76" cx="12.642" cy="12.702" rx="12.642" ry="12.702" transform="translate(241.975 8.55)" fill="#a0616a"/>
    <path id="Path_3139" data-name="Path 3139" d="M847.9,183.93s1.945,9.771,1.945,11.236,8.266,5.862,8.266,5.862l9.238-11.725s-5.835-8.305-5.835-10.259Z" transform="translate(-597.656 -153.396)" fill="#a0616a"/>
    <path id="Path_3140" data-name="Path 3140" d="M835.667,208.851s-4.238-1.133-5.522-3.009c0,0-13.44,13.269-13.44,15.711l10.7,19.053s0,6.84.972,7.328,0,0,0,1.954-2.917,14.656-1.945,16.61,1.945.489.972,3.42-3.4,18.565-3.4,18.565,8.752-2.931,21.394,1.954,27.714-1.954,27.714-1.954-3.89-8.794-2.917-11.725-2.431-8.305-2.431-8.305l-2.431-44.946s3.4-20.03.972-21.007l-4.862-1.954-15.571-1.923S841.988,208.362,835.667,208.851Z" transform="translate(-578.134 -165.615)" fill="#d0cde1"/>
    <path id="Path_3141" data-name="Path 3141" d="M819.76,250.526l-4.862,3.42s-2.431,7.328,0,10.748A25.127,25.127,0,0,1,818.3,273l9.724-.977Z" transform="translate(-576.326 -198.008)" fill="#d0cde1"/>
    <path id="Path_3142" data-name="Path 3142" d="M826.683,118.64l-2.193-.882s4.585-5.072,10.964-4.631l-1.794-1.985s4.386-1.764,8.373,2.867a39.1,39.1,0,0,1,6.032,8.519h2.348l-.98,2.168,3.43,2.168-3.521-.39a12.055,12.055,0,0,1-.333,5.616l.094,1.714s-4.081-6.345-4.081-7.227v2.205s-2.193-1.985-2.193-3.308l-1.2,1.544-.6-2.426-7.376,2.426,1.2-1.985-4.585.662,1.794-2.426s-5.183,2.867-5.383,5.293-2.791,5.513-2.791,5.513l-1.2-2.205S820.9,121.947,826.683,118.64Z" transform="translate(-581.719 -110.812)" fill="#2f2e41"/>
    <rect id="Rectangle_686" data-name="Rectangle 686" width="193.214" height="136.375" transform="translate(54.683 106.316)" fill="#f2f2f2"/>
    <rect id="Rectangle_687" data-name="Rectangle 687" width="48.514" height="85.094" transform="translate(70.948 158.349)" fill="#3f3d56"/>
    <rect id="Rectangle_688" data-name="Rectangle 688" width="13.068" height="12.241" transform="translate(79.922 163.454)" fill="#f2f2f2"/>
    <rect id="Rectangle_689" data-name="Rectangle 689" width="13.068" height="12.241" transform="translate(97.42 163.454)" fill="#f2f2f2"/>
    <rect id="Rectangle_690" data-name="Rectangle 690" width="13.068" height="12.686" transform="translate(79.922 180.146)" fill="#f2f2f2"/>
    <rect id="Rectangle_691" data-name="Rectangle 691" width="13.068" height="12.686" transform="translate(97.42 180.146)" fill="#f2f2f2"/>
    <ellipse id="Ellipse_77" data-name="Ellipse 77" cx="3.085" cy="3.099" rx="3.085" ry="3.099" transform="translate(110.208 203.526)" fill="#00b1a1"/>
    <rect id="Rectangle_692" data-name="Rectangle 692" width="95.906" height="80.867" transform="translate(135.726 150.272)" fill="#3f3d56"/>
    <path id="Path_3143" data-name="Path 3143" d="M325.794,242.488H92.2l15.575-32.719,3.486-7.326,4.56-9.58,3.486-7.326,4.041-8.487H307.39l2.386,8.487,2.061,7.326,2.7,9.58,2.061,7.326Z" transform="translate(-57.706 -110.498)" fill="#3f3d56"/>
    <rect id="Rectangle_693" data-name="Rectangle 693" width="3.365" height="20.851" transform="translate(139.092 183.802)" fill="#00b1a1"/>
    <rect id="Rectangle_694" data-name="Rectangle 694" width="3.365" height="2.536" transform="translate(139.092 186.902)" fill="#f2f2f2"/>
    <rect id="Rectangle_695" data-name="Rectangle 695" width="3.365" height="2.536" transform="translate(139.092 199.017)" fill="#f2f2f2"/>
    <rect id="Rectangle_696" data-name="Rectangle 696" width="8.132" height="20.851" transform="translate(144.139 183.802)" fill="#00b1a1"/>
    <rect id="Rectangle_697" data-name="Rectangle 697" width="8.132" height="2.536" transform="translate(144.139 186.902)" fill="#f2f2f2"/>
    <rect id="Rectangle_698" data-name="Rectangle 698" width="8.132" height="2.536" transform="translate(144.139 199.017)" fill="#f2f2f2"/>
    <rect id="Rectangle_699" data-name="Rectangle 699" width="3.365" height="20.851" transform="translate(154.234 183.802)" fill="#00b1a1"/>
    <rect id="Rectangle_700" data-name="Rectangle 700" width="3.365" height="2.536" transform="translate(154.234 186.902)" fill="#f2f2f2"/>
    <rect id="Rectangle_701" data-name="Rectangle 701" width="3.365" height="2.536" transform="translate(154.234 199.017)" fill="#f2f2f2"/>
    <rect id="Rectangle_702" data-name="Rectangle 702" width="3.365" height="20.851" transform="translate(159.282 183.802)" fill="#00b1a1"/>
    <rect id="Rectangle_703" data-name="Rectangle 703" width="3.365" height="2.536" transform="translate(159.282 186.902)" fill="#f2f2f2"/>
    <rect id="Rectangle_704" data-name="Rectangle 704" width="3.365" height="2.536" transform="translate(159.282 199.017)" fill="#f2f2f2"/>
    <path id="Path_3149" data-name="Path 3149" d="M0,0,3.367-.005,3.334,20.833l-3.367.005Z" transform="translate(162.743 185.068) rotate(-20.654)" fill="#00b1a1"/>
    <path id="Path_3150" data-name="Path 3150" d="M0,0,3.367-.005l0,2.534L0,2.534Z" transform="translate(163.831 187.968) rotate(-20.654)" fill="#f2f2f2"/>
    <path id="Path_3151" data-name="Path 3151" d="M0,0,3.367-.005l0,2.534L0,2.534Z" transform="translate(168.084 199.306) rotate(-20.654)" fill="#f2f2f2"/>
    <rect id="Rectangle_708" data-name="Rectangle 708" width="8.132" height="20.851" transform="translate(220.415 183.802)" fill="#00b1a1"/>
    <rect id="Rectangle_709" data-name="Rectangle 709" width="8.132" height="2.536" transform="translate(220.415 186.902)" fill="#f2f2f2"/>
    <rect id="Rectangle_710" data-name="Rectangle 710" width="8.132" height="2.536" transform="translate(220.415 199.017)" fill="#f2f2f2"/>
    <rect id="Rectangle_711" data-name="Rectangle 711" width="3.365" height="20.851" transform="translate(215.087 183.802)" fill="#00b1a1"/>
    <rect id="Rectangle_712" data-name="Rectangle 712" width="3.365" height="2.536" transform="translate(215.087 186.902)" fill="#f2f2f2"/>
    <rect id="Rectangle_713" data-name="Rectangle 713" width="3.365" height="2.536" transform="translate(215.087 199.017)" fill="#f2f2f2"/>
    <rect id="Rectangle_714" data-name="Rectangle 714" width="3.365" height="20.851" transform="translate(210.039 183.802)" fill="#00b1a1"/>
    <rect id="Rectangle_715" data-name="Rectangle 715" width="3.365" height="2.536" transform="translate(210.039 186.902)" fill="#f2f2f2"/>
    <rect id="Rectangle_716" data-name="Rectangle 716" width="3.365" height="2.536" transform="translate(210.039 199.017)" fill="#f2f2f2"/>
    <path id="Path_3152" data-name="Path 3152" d="M0,0,20.838-.033l-.005,3.367L-.005,3.367Z" transform="translate(199.479 203.386) rotate(-69.346)" fill="#00b1a1"/>
    <path id="Path_3153" data-name="Path 3153" d="M0,0,2.534,0,2.529,3.363l-2.534,0Z" transform="translate(204.82 189.149) rotate(-69.346)" fill="#f2f2f2"/>
    <path id="Path_3154" data-name="Path 3154" d="M0,0,2.534,0,2.529,3.363l-2.534,0Z" transform="translate(200.567 200.486) rotate(-69.346)" fill="#f2f2f2"/>
    <rect id="Rectangle_720" data-name="Rectangle 720" width="95.906" height="1.972" transform="translate(135.726 204.653)" fill="#f2f2f2"/>
    <rect id="Rectangle_721" data-name="Rectangle 721" width="17.667" height="20.851" transform="translate(177.51 183.802)" fill="#00b1a1"/>
    <rect id="Rectangle_722" data-name="Rectangle 722" width="8.974" height="3.945" transform="translate(181.856 188.31)" fill="#f2f2f2"/>
    <rect id="Rectangle_723" data-name="Rectangle 723" width="1.683" height="18.033" transform="translate(182.838 150.272)" fill="#f2f2f2"/>
    <ellipse id="Ellipse_78" data-name="Ellipse 78" cx="2.804" cy="2.818" rx="2.804" ry="2.818" transform="translate(180.875 165.487)" fill="#f2f2f2"/>
    <path id="Path_3144" data-name="Path 3144" d="M351.355,206.954H155.337l3.486-7.326H349.294Z" transform="translate(-97.224 -124.588)" fill="#00b1a1"/>
    <path id="Path_3145" data-name="Path 3145" d="M342.65,251.929H133.831l3.486-7.326H340.589Z" transform="translate(-83.764 -152.657)" fill="#00b1a1"/>
    <path id="Path_3146" data-name="Path 3146" d="M845.929,262.223S843.114,269.5,843.7,276.7a7.652,7.652,0,0,0,1.255,3.6h0l-34.495,16.455s-15.586,1.621-11.7,8.461,17.99-3.42,17.99-3.42,36.953-5.374,39.87-10.748,4.862-27.847,4.862-27.847Z" transform="translate(-566.516 -205.308)" fill="#a0616a"/>
    <path id="Path_3147" data-name="Path 3147" d="M924.082,208.937h7.293s5.348.977,6.807,10.748S941.1,231.9,939.641,231.9s-18.963-.489-18.963-.977S924.082,208.937,924.082,208.937Z" transform="translate(-643.21 -172.052)" fill="#d0cde1"/>
    <ellipse id="Ellipse_79" data-name="Ellipse 79" cx="37.411" cy="37.59" rx="37.411" ry="37.59" transform="translate(0 107.648)" fill="#00b1a1"/>
    <ellipse id="Ellipse_80" data-name="Ellipse 80" cx="32.173" cy="32.327" rx="32.173" ry="32.327" transform="translate(5.238 112.911)" opacity="0.1"/>
    <path id="Path_3148" data-name="Path 3148" d="M264.432,484.435V479.73a10.839,10.839,0,0,1-6.244-2.05l.979-3.121a9.951,9.951,0,0,0,5.877,2A4.511,4.511,0,0,0,269.9,472c0-2.562-1.592-4.146-4.612-5.544-4.163-1.863-6.734-4.006-6.734-8.059a7.315,7.315,0,0,1,6.163-7.5v-4.705h2.53v4.519a9.9,9.9,0,0,1,5.306,1.63l-1.02,3.075a8.988,8.988,0,0,0-5.142-1.584c-3.142,0-4.326,2.143-4.326,4.006,0,2.422,1.51,3.634,5.061,5.311,4.2,1.957,6.326,4.379,6.326,8.525A7.787,7.787,0,0,1,267,479.59v4.845Z" transform="translate(-228.563 -320.121)" fill="#f2f2f2"/>
  </g>
</svg>
